<svg width="91" height="85" viewBox="0 0 91 85" fill="none" xmlns="http://www.w3.org/2000/svg">
<g id="Video icon" clip-path="url(#clip0_425_497)">
<path id="Vector" fill-rule="evenodd" clip-rule="evenodd" d="M0 0H16.943V85H0V0ZM73.7521 0H16.943V85H73.7521V0ZM73.7521 0H90.6951V85H73.7521V0ZM30.6114 27.7638H60.0838V57.2362H30.6114V27.7638ZM52.3953 42.5712L46.9849 45.7035L41.5745 48.8358V42.5712V36.3065L46.9849 39.4389L52.3953 42.5712ZM2.70519 4.69849H14.3802V14.9497H2.70519V4.69849ZM2.70519 17.7973H14.3802V28.0486H2.70519V17.7973ZM2.70519 30.8961H14.3802V41.1474H2.70519V30.8961ZM2.70519 43.995H14.3802V54.2462H2.70519V43.995ZM2.70519 56.9514H14.3802V67.2027H2.70519V56.9514ZM2.70519 70.0502H14.3802V80.3015H2.70519V70.0502ZM76.4573 4.69849H88.1323V14.9497H76.4573V4.69849ZM76.4573 17.7973H88.1323V28.0486H76.4573V17.7973ZM76.4573 30.8961H88.1323V41.1474H76.4573V30.8961ZM76.4573 43.995H88.1323V54.2462H76.4573V43.995ZM76.4573 56.9514H88.1323V67.2027H76.4573V56.9514ZM76.4573 70.0502H88.1323V80.3015H76.4573V70.0502Z" fill="#B07BB3"/>
</g>
<defs>
<clipPath id="clip0_425_497">
<rect width="90.6951" height="85" fill="white"/>
</clipPath>
</defs>
</svg>
