<svg width="85" height="90" viewBox="0 0 85 90" fill="none" xmlns="http://www.w3.org/2000/svg">
<g id="3D icon" clip-path="url(#clip0_425_499)">
<path id="Vector" fill-rule="evenodd" clip-rule="evenodd" d="M42.5 47.7876L42.0806 67.5664L21.25 56.6814L21.6694 36.9027L42.5 47.7876ZM63.1908 55.885L44.7368 66.1062L45.1562 46.4602L63.6102 36.3717L63.1908 55.885ZM42.5 45L21.6694 34.115L42.9194 22.5664L63.6102 33.4513L42.5 45ZM45.8553 1.32743L85 21.7699L84.1612 66.9027L65.847 57.3451L66.1266 32.1239L45.5757 21.2389L45.8553 1.32743ZM21.1102 59.469C28.9391 63.4513 34.3914 66.2389 42.0806 70.2212L63.3306 58.6726L81.5049 68.0973L41.6612 90L2.79605 69.6903L21.1102 59.469ZM18.5938 58.1416L0 68.2301C0.279605 53.2301 0.699013 38.2301 0.978618 23.0973L43.199 0L42.9194 19.7788H42.7796L19.0132 32.7876L18.5938 58.1416Z" fill="#B07BB3"/>
</g>
<defs>
<clipPath id="clip0_425_499">
<rect width="85" height="90" fill="white"/>
</clipPath>
</defs>
</svg>
