<svg width="111" height="90" viewBox="0 0 111 90" fill="none" xmlns="http://www.w3.org/2000/svg">
<g id="Group">
<path id="Vector" d="M49.9576 68.3459C51.3042 68.3459 52.2468 67.2632 52.2468 66.0451C52.2468 64.8271 51.1695 63.7444 49.9576 63.7444C48.7457 63.7444 47.6685 64.8271 47.6685 66.0451C47.6685 67.2632 48.7457 68.3459 49.9576 68.3459Z" fill="#B07BB3"/>
<path id="Vector_2" d="M6.73284 71.594C4.17436 71.594 2.15451 69.4286 2.15451 66.9925V6.76692C2.15451 4.19549 4.30902 2.16541 6.73284 2.16541H93.3172C95.8756 2.16541 97.8955 4.33083 97.8955 6.76692V31.1278H99.9153V6.76692C100.05 2.97744 97.0876 0 93.3172 0H6.73284C2.96245 0 0 2.97744 0 6.76692V66.8571C0 70.6466 2.96245 73.6241 6.73284 73.6241H42.1476V80.391H30.9711C28.4126 80.391 26.5274 82.4211 26.5274 84.8571C26.5274 87.4286 28.5472 89.3233 30.9711 89.3233H68.9443C71.5028 89.3233 73.388 87.2932 73.388 84.8571C73.388 82.2857 71.3681 80.391 68.9443 80.391H57.7678V73.6241H77.697V71.4586C53.3241 71.594 9.56063 71.594 6.73284 71.594ZM44.3021 73.7594H55.4786V80.5263H44.3021V73.7594ZM69.0789 82.6917C70.1562 82.6917 71.2335 83.7744 71.2335 84.9925C71.2335 86.2105 70.1562 87.2932 68.9443 87.2932H31.2404C30.0285 87.2932 28.9512 86.2105 28.9512 84.9925C28.9512 83.7744 30.0285 82.6917 31.2404 82.6917C35.4147 82.6917 64.5006 82.6917 69.0789 82.6917Z" fill="#B07BB3"/>
<path id="Vector_3" d="M92.3745 6.63159H7.81004C7.27142 6.63159 6.73279 7.17294 6.73279 7.7143V59.2782C6.73279 59.8196 7.27142 60.3609 7.81004 60.3609H77.5623V33.2932C77.5623 32.0752 78.5049 31.1278 79.7168 31.1278H93.4518V7.84964C93.4518 7.17295 92.9131 6.63159 92.3745 6.63159ZM68.6749 26.5263V40.3308C68.6749 40.7369 68.2709 41.1429 67.867 41.1429H16.2934C15.7548 41.1429 15.4855 40.7369 15.4855 40.3308V26.5263C15.4855 26.1203 15.8895 25.7143 16.2934 25.7143H67.867C68.2709 25.7143 68.6749 26.1203 68.6749 26.5263Z" fill="#B07BB3"/>
<path id="Vector_4" d="M30.8364 30.4512C30.2978 30.3158 29.7591 30.4512 29.4898 30.9925L28.1433 34.2406L26.2581 30.9925C25.9887 30.3158 24.9115 30.3158 24.5075 30.9925L22.6223 34.2406L21.2758 30.9925C21.1411 30.4512 20.4678 30.1805 19.9292 30.4512C19.3906 30.5865 19.1213 31.2632 19.3906 31.8045L21.5451 36.8121C21.6797 37.0827 22.0837 37.4888 22.353 37.4888C22.6223 37.4888 23.0263 37.3534 23.161 36.9474L25.3155 33.2933L27.47 36.9474C27.6046 37.2181 28.0086 37.4888 28.2779 37.4888C28.5472 37.4888 28.9512 37.2181 29.0859 36.8121L31.2404 31.8045C31.6443 31.2632 31.5097 30.5865 30.8364 30.4512Z" fill="#B07BB3"/>
<path id="Vector_5" d="M45.1101 30.4512C44.5714 30.3158 44.0328 30.4512 43.7635 30.9925L42.4169 34.2406L40.5317 30.9925C40.2624 30.3158 39.1852 30.3158 38.7812 30.9925L36.896 34.2406L35.5494 30.9925C35.4148 30.4512 34.7415 30.1805 34.2029 30.4512C33.6642 30.5865 33.3949 31.2632 33.6642 31.8045L35.8188 36.8121C35.9534 37.0827 36.3574 37.4888 36.6267 37.4888C36.896 37.4888 37.3 37.3534 37.4346 36.9474L39.5891 33.2933L41.7437 36.9474C41.8783 37.2181 42.2823 37.4888 42.5516 37.4888C42.8209 37.4888 43.2249 37.2181 43.3595 36.8121L45.514 31.8045C45.918 31.2632 45.6487 30.5865 45.1101 30.4512Z" fill="#B07BB3"/>
<path id="Vector_6" d="M59.249 30.4512C58.7104 30.3158 58.1717 30.4512 57.9024 30.9925L56.5559 34.2406L54.6707 30.9925C54.4013 30.3158 53.3241 30.3158 52.9201 30.9925L51.0349 34.2406L49.6884 30.9925C49.5537 30.4512 48.8804 30.1805 48.3418 30.4512C47.8032 30.5865 47.5338 31.2632 47.8032 31.8045L49.9577 36.8121C50.0923 37.0827 50.4963 37.4888 50.7656 37.4888C51.0349 37.4888 51.4389 37.3534 51.5736 36.9474L53.7281 33.2933L55.8826 36.9474C56.0172 37.2181 56.4212 37.4888 56.6905 37.4888C56.9598 37.4888 57.3638 37.2181 57.4985 36.8121L59.653 31.8045C60.0569 31.2632 59.9223 30.5865 59.249 30.4512Z" fill="#B07BB3"/>
<path id="Vector_7" d="M62.4807 34.5113C61.6728 34.5113 60.9995 35.188 60.9995 36C60.9995 36.812 61.6728 37.4887 62.4807 37.4887C63.2887 37.4887 63.962 36.812 63.962 36C63.962 35.188 63.2887 34.5113 62.4807 34.5113Z" fill="#B07BB3"/>
<path id="Vector_8" d="M107.995 31.1278H99.7806H97.7608H93.3171H79.7168C78.5049 31.1278 77.5623 32.0752 77.5623 33.2932V60.3609V71.594V73.7594V87.8346C77.5623 89.0526 78.5049 90 79.7168 90H108.129C109.341 90 110.284 89.0526 110.284 87.8346V33.2932C110.149 32.0752 109.207 31.1278 107.995 31.1278ZM106.783 80.6616H81.0633V35.3233H106.783V80.6616Z" fill="#B07BB3"/>
<path id="Vector_9" d="M81.0634 35.3233V80.6617H106.783V35.3233H81.0634ZM87.1229 57.9248C87.1229 56.4361 88.2002 55.3534 89.6814 55.3534H91.9706C91.9706 55.218 91.9706 55.0827 91.9706 54.812C90.3547 54.1353 89.4121 52.9173 89.4121 50.7519C89.4121 48.5865 91.4319 46.1504 93.9904 46.1504C96.4142 46.1504 98.4341 48.5865 98.4341 50.7519C98.4341 52.9173 97.3568 54.1353 95.8756 54.812C95.8756 54.9474 95.8756 55.0827 95.8756 55.218C95.8756 55.218 95.8756 55.218 95.8756 55.3534H98.1648C99.5113 55.3534 100.723 56.4361 100.723 57.9248V64.9624C100.723 66.4511 99.5113 67.5338 98.1648 67.5338H89.816C88.3348 67.5338 87.2576 66.4511 87.2576 64.9624V57.9248H87.1229ZM98.4341 71.594C98.9727 71.594 99.5113 72 99.5113 72.5413C99.5113 73.0827 98.9727 73.4887 98.4341 73.4887H89.4121C88.8734 73.4887 88.3348 73.0827 88.3348 72.5413C88.3348 72 88.8734 71.594 89.4121 71.594H98.4341ZM99.7806 77.1429H88.0655C87.5269 77.1429 86.9882 76.7368 86.9882 76.1955C86.9882 75.6541 87.5269 75.2481 88.0655 75.2481H99.7806C100.319 75.2481 100.858 75.6541 100.858 76.1955C100.858 76.7368 100.319 77.1429 99.7806 77.1429ZM103.282 43.3083H94.2597C93.7211 43.3083 93.1825 42.9022 93.1825 42.3609C93.1825 41.8195 93.7211 41.4135 94.2597 41.4135H103.282C103.82 41.4135 104.359 41.8195 104.359 42.3609C104.359 42.9022 103.82 43.3083 103.282 43.3083ZM104.359 38.7068C104.359 39.2481 103.82 39.6541 103.282 39.6541H91.5666C91.028 39.6541 90.4893 39.2481 90.4893 38.7068C90.4893 38.1654 91.028 37.7594 91.5666 37.7594H103.282C103.82 37.7594 104.359 38.1654 104.359 38.7068Z" fill="white"/>
<path id="Vector_10" d="M89.6814 67.3985H98.0301C99.3767 67.3985 100.589 66.3158 100.589 64.827V57.7895C100.589 56.3007 99.3767 55.218 98.0301 55.218H95.741C95.741 55.218 95.741 55.218 95.741 55.0827C95.741 54.9473 95.741 54.812 95.741 54.6767C97.2222 54 98.2995 52.7819 98.2995 50.6165C98.2995 48.4511 96.2796 46.015 93.8558 46.015C91.2973 46.015 89.2775 48.4511 89.2775 50.6165C89.2775 52.7819 90.3547 54 91.8359 54.6767C91.8359 54.812 91.8359 54.9473 91.8359 55.218C91.8359 55.0827 91.8359 55.0827 91.8359 55.218C91.8359 55.3534 91.8359 55.4887 91.8359 55.3534V55.218H89.5468C88.0655 55.218 86.9883 56.3007 86.9883 57.7895V64.827C87.1229 66.3158 88.3348 67.3985 89.6814 67.3985Z" fill="#B07BB3"/>
<path id="Vector_11" d="M91.5666 37.7594C91.028 37.7594 90.4894 38.1654 90.4894 38.7068C90.4894 39.2481 91.028 39.6541 91.5666 39.6541H103.282C103.82 39.6541 104.359 39.2481 104.359 38.7068C104.359 38.1654 103.82 37.7594 103.282 37.7594H91.5666Z" fill="#B07BB3"/>
<path id="Vector_12" d="M103.282 41.5489H94.2598C93.7211 41.5489 93.1825 41.9549 93.1825 42.4963C93.1825 43.0376 93.7211 43.4436 94.2598 43.4436H103.282C103.82 43.4436 104.359 43.0376 104.359 42.4963C104.359 41.9549 103.82 41.5489 103.282 41.5489Z" fill="#B07BB3"/>
<path id="Vector_13" d="M88.3348 72.5414C88.3348 73.0827 88.8735 73.4887 89.4121 73.4887H98.4341C98.9727 73.4887 99.5114 73.0827 99.5114 72.5414C99.5114 72 98.9727 71.594 98.4341 71.594H89.4121C88.7388 71.594 88.3348 72 88.3348 72.5414Z" fill="#B07BB3"/>
<path id="Vector_14" d="M99.7807 75.3835H88.0655C87.5269 75.3835 86.9883 75.7895 86.9883 76.3309C86.9883 76.8722 87.5269 77.2782 88.0655 77.2782H99.7807C100.319 77.2782 100.858 76.8722 100.858 76.3309C100.858 75.7895 100.319 75.3835 99.7807 75.3835Z" fill="#B07BB3"/>
</g>
</svg>
