<svg width="99" height="98" viewBox="0 0 99 98" fill="none" xmlns="http://www.w3.org/2000/svg">
<g id="Design icon" clip-path="url(#clip0_425_501)">
<path id="Vector" fill-rule="evenodd" clip-rule="evenodd" d="M78.526 9.41957L93.1662 24.7889C93.3228 25.0437 93.3462 25.3101 93.0915 25.4665L91.6099 26.9379L86.2872 21.3612L84.8057 22.8326L90.1283 28.4093L86.1579 32.1109L83.5024 29.3892L82.0208 30.8605L84.6763 33.5823L80.7176 37.4171L75.3949 31.8404L73.9134 33.3118L79.236 38.8885L75.2656 42.5901L72.6101 39.8684L71.1285 41.3398L73.784 44.0615L69.8136 47.7632L64.4909 42.1864L63.0093 43.6578L68.332 49.2345L67.458 49.9818L52.0814 33.8713L77.8599 9.47759C77.9814 9.33277 78.381 9.29796 78.526 9.41957ZM15.5123 27.1237L29.5127 13.8234L91.0072 78.1324L77.0068 91.4327L15.5123 27.1237ZM9.32516 7.12537L10.9823 7.65217L12.5063 8.19057L18.4571 10.2226L27.4442 13.1982L21.1416 19.3849L14.7057 25.5832L12.1545 16.4093L10.2839 10.3976L9.87698 8.8223L9.32516 7.12537ZM50.0083 66.8042L48.029 68.7216L42.7063 63.1449L41.2247 64.6162L46.5474 70.193L42.5887 74.0278L39.9332 71.3061L38.4516 72.7774L41.1071 75.4992L37.1367 79.2008L31.6808 73.6357L30.1992 75.1071L35.5219 80.6838L31.5632 84.5186L28.896 81.6637L27.4144 83.135L30.0699 85.8568L26.0994 89.5584L20.7768 83.9817L19.2952 85.4531L24.6179 91.0298L21.643 93.8393C21.3882 93.9958 21.1218 94.019 20.9652 93.7642L6.33666 78.5281C6.18003 78.2732 6.15662 78.0068 6.41136 77.8504L34.6318 50.6936L50.0083 66.8042Z" fill="#B07BB3"/>
</g>
<defs>
<clipPath id="clip0_425_501">
<rect width="91.4675" height="89.9965" fill="white" transform="matrix(0.996229 -0.0867819 0.0875313 0.996163 0 7.93769)"/>
</clipPath>
</defs>
</svg>
